<svg width="291" height="42" viewBox="0 0 291 42" fill="none" xmlns="http://www.w3.org/2000/svg">
<path d="M0.2 31V29.68C1.21333 29.6267 1.90667 29.4 2.28 29C2.65333 28.5733 2.85333 28 2.88 27.28C2.93333 26.5333 2.96 25.6933 2.96 24.76V7.48C2.96 6.94667 2.97333 6.44 3 5.96C3.02667 5.45333 3.05333 5 3.08 4.6C2.6 4.62667 2.12 4.65333 1.64 4.68C1.16 4.70667 0.68 4.73333 0.2 4.76V3C1.69333 2.97333 3.2 2.94667 4.72 2.92C6.26667 2.89333 7.81333 2.90667 9.36 2.96C11.9467 2.98666 14.0267 3.29333 15.6 3.88C17.2 4.44 18.3733 5.25333 19.12 6.32C19.8667 7.36 20.24 8.62667 20.24 10.12C20.2667 11.16 20.0667 12.2267 19.64 13.32C19.24 14.3867 18.4933 15.3467 17.4 16.2C16.3333 17.0533 14.7867 17.6933 12.76 18.12C13.2933 18.4933 13.76 18.9733 14.16 19.56C14.56 20.1467 15.0133 20.8267 15.52 21.6L18.24 25.88C18.6933 26.6 19.1333 27.2533 19.56 27.84C19.9867 28.4 20.48 28.8533 21.04 29.2C21.6 29.52 22.2933 29.68 23.12 29.68V31H18.08C17.3067 30.3067 16.6533 29.6133 16.12 28.92C15.6133 28.2267 15.08 27.44 14.52 26.56L11.84 22.28C11.4933 21.72 11.0933 21.08 10.64 20.36C10.2133 19.6133 9.72 18.9867 9.16 18.48C8.73333 18.5067 8.28 18.52 7.8 18.52C7.34667 18.52 6.89333 18.5067 6.44 18.48V26.24C6.44 26.96 6.42667 27.5867 6.4 28.12C6.4 28.6267 6.37333 29.0533 6.32 29.4C6.64 29.3733 6.96 29.36 7.28 29.36C7.6 29.3333 7.92 29.3067 8.24 29.28C8.56 29.2533 8.88 29.24 9.2 29.24V31H0.2ZM8.92 17C10.3867 16.9467 11.6667 16.7067 12.76 16.28C13.88 15.8533 14.76 15.1733 15.4 14.24C16.04 13.3067 16.36 12.08 16.36 10.56C16.36 9.54667 16.2133 8.66667 15.92 7.92C15.6533 7.14667 15.2267 6.50667 14.64 6C14.0533 5.49333 13.3067 5.12 12.4 4.88C11.4933 4.61333 10.4267 4.48 9.2 4.48C8.21333 4.48 7.52 4.68 7.12 5.08C6.74667 5.48 6.53333 6.04 6.48 6.76C6.45333 7.45333 6.44 8.28 6.44 9.24V16.92C6.86667 16.9467 7.26667 16.9733 7.64 17C8.04 17.0267 8.46667 17.0267 8.92 17ZM37.0372 31C36.9572 30.5467 36.9039 30.1467 36.8772 29.8C36.8505 29.4533 36.8105 29.0933 36.7572 28.72C35.8505 29.6267 34.8639 30.3467 33.7972 30.88C32.7572 31.3867 31.6505 31.64 30.4772 31.64C28.4505 31.64 26.9439 31.1867 25.9572 30.28C24.9705 29.3467 24.4772 28.2133 24.4772 26.88C24.4772 25.6533 24.8505 24.6 25.5972 23.72C26.3705 22.8133 27.3572 22.08 28.5572 21.52C29.7839 20.9333 31.1039 20.5067 32.5172 20.24C33.9572 19.9467 35.3439 19.8133 36.6772 19.84V17.36C36.6772 16.4267 36.5972 15.5467 36.4372 14.72C36.2772 13.8933 35.9305 13.2133 35.3972 12.68C34.8639 12.1467 34.0105 11.8667 32.8372 11.84C32.0639 11.8133 31.2639 11.96 30.4372 12.28C29.6372 12.6 29.0505 13.1467 28.6772 13.92C28.8905 14.1333 29.0239 14.3867 29.0772 14.68C29.1572 14.9467 29.1972 15.2 29.1972 15.44C29.1972 15.76 29.0639 16.1333 28.7972 16.56C28.5305 16.96 28.0639 17.1467 27.3972 17.12C26.8372 17.12 26.4105 16.9333 26.1172 16.56C25.8239 16.16 25.6772 15.6933 25.6772 15.16C25.6772 14.2533 26.0105 13.44 26.6772 12.72C27.3705 12 28.3172 11.4267 29.5172 11C30.7172 10.5733 32.0772 10.36 33.5972 10.36C35.8372 10.36 37.4905 10.96 38.5572 12.16C39.6239 13.3333 40.1439 15.2 40.1172 17.76C40.1172 18.7467 40.1172 19.7467 40.1172 20.76C40.1172 21.7467 40.1039 22.7467 40.0772 23.76C40.0772 24.7467 40.0772 25.7467 40.0772 26.76C40.0772 27.1867 40.0639 27.6133 40.0372 28.04C40.0105 28.4667 39.9705 28.9467 39.9172 29.48C40.3972 29.4533 40.8639 29.4267 41.3172 29.4C41.7972 29.3733 42.2772 29.3467 42.7572 29.32V31H37.0372ZM36.6772 21.2C35.7705 21.2267 34.8105 21.3467 33.7972 21.56C32.8105 21.7467 31.8905 22.04 31.0372 22.44C30.2105 22.84 29.5305 23.3733 28.9972 24.04C28.4905 24.68 28.2505 25.4667 28.2772 26.4C28.3305 27.3867 28.6505 28.1333 29.2372 28.64C29.8505 29.12 30.5705 29.36 31.3972 29.36C32.4905 29.36 33.4372 29.16 34.2372 28.76C35.0639 28.3333 35.8772 27.7467 36.6772 27C36.6505 26.7067 36.6372 26.3867 36.6372 26.04C36.6372 25.6933 36.6372 25.3333 36.6372 24.96C36.6372 24.8267 36.6372 24.4 36.6372 23.68C36.6639 22.96 36.6772 22.1333 36.6772 21.2ZM54.0622 31.64C52.4355 31.64 50.9689 31.24 49.6622 30.44C48.3555 29.6133 47.3155 28.44 46.5422 26.92C45.7955 25.4 45.4222 23.6133 45.4222 21.56C45.4222 19.3733 45.8622 17.44 46.7422 15.76C47.6222 14.08 48.8355 12.76 50.3822 11.8C51.9555 10.84 53.7289 10.36 55.7022 10.36C56.5822 10.36 57.4489 10.48 58.3022 10.72C59.1822 10.9333 59.8755 11.1867 60.3822 11.48V6C60.3822 5.57333 60.3822 5.17333 60.3822 4.8C60.4089 4.4 60.4489 3.93333 60.5022 3.4C60.0222 3.42667 59.5422 3.45333 59.0622 3.48C58.6089 3.50667 58.1422 3.53333 57.6622 3.56V1.88C58.8355 1.88 59.7422 1.82666 60.3822 1.72C61.0222 1.61333 61.5022 1.48 61.8222 1.32C62.1689 1.16 62.4355 0.986665 62.6222 0.799998H63.7822V26.76C63.7822 27.1867 63.7689 27.6133 63.7422 28.04C63.7155 28.4667 63.6755 28.9467 63.6222 29.48C64.1022 29.4533 64.5689 29.4267 65.0222 29.4C65.5022 29.3733 65.9822 29.3467 66.4622 29.32V31H60.7422C60.6622 30.6 60.5955 30.24 60.5422 29.92C60.5155 29.5733 60.4889 29.24 60.4622 28.92C59.7155 29.7467 58.7955 30.4133 57.7022 30.92C56.6089 31.4 55.3955 31.64 54.0622 31.64ZM55.5022 29.68C56.3822 29.68 57.2622 29.4267 58.1422 28.92C59.0489 28.4133 59.7955 27.7867 60.3822 27.04C60.3555 26.72 60.3422 26.3867 60.3422 26.04C60.3422 25.6667 60.3422 25.2667 60.3422 24.84L60.3822 13.32C59.7422 12.84 59.0355 12.4933 58.2622 12.28C57.5155 12.04 56.7422 11.92 55.9422 11.92C54.6089 11.92 53.4489 12.3067 52.4622 13.08C51.4755 13.8533 50.7289 14.9333 50.2222 16.32C49.7155 17.7067 49.4889 19.3333 49.5422 21.2C49.5955 22.8267 49.8489 24.28 50.3022 25.56C50.7822 26.84 51.4489 27.8533 52.3022 28.6C53.1822 29.32 54.2489 29.68 55.5022 29.68ZM69.4084 29.8C70.2351 29.8 70.8084 29.6 71.1284 29.2C71.4484 28.7733 71.6351 28.2 71.6884 27.48C71.7418 26.7333 71.7684 25.88 71.7684 24.92V15.8C71.7684 15.3733 71.7818 14.9733 71.8084 14.6C71.8351 14.2 71.8751 13.7333 71.9284 13.2C71.4484 13.2267 70.9684 13.2533 70.4884 13.28C70.0351 13.3067 69.5684 13.3333 69.0884 13.36V11.68C70.2618 11.68 71.1684 11.6267 71.8084 11.52C72.4484 11.4133 72.9284 11.28 73.2484 11.12C73.5951 10.96 73.8618 10.7867 74.0484 10.6H75.2084V26.76C75.2084 27.2933 75.1951 27.7733 75.1684 28.2C75.1684 28.6 75.1284 29.0267 75.0484 29.48C75.4751 29.4533 75.8884 29.44 76.2884 29.44C76.7151 29.4133 77.1418 29.3867 77.5684 29.36V31H69.4084V29.8ZM73.2884 6.64C72.7284 6.64 72.2351 6.41333 71.8084 5.96C71.3818 5.50667 71.1684 4.94667 71.1684 4.28C71.1684 3.61333 71.3818 3.05333 71.8084 2.6C72.2618 2.12 72.7684 1.88 73.3284 1.88C73.9418 1.88 74.4484 2.12 74.8484 2.6C75.2751 3.05333 75.4884 3.61333 75.4884 4.28C75.4884 4.94667 75.2618 5.50667 74.8084 5.96C74.3818 6.41333 73.8751 6.64 73.2884 6.64ZM92.8184 31C92.7384 30.5467 92.6851 30.1467 92.6584 29.8C92.6318 29.4533 92.5918 29.0933 92.5384 28.72C91.6318 29.6267 90.6451 30.3467 89.5784 30.88C88.5384 31.3867 87.4318 31.64 86.2584 31.64C84.2318 31.64 82.7251 31.1867 81.7384 30.28C80.7518 29.3467 80.2584 28.2133 80.2584 26.88C80.2584 25.6533 80.6318 24.6 81.3784 23.72C82.1518 22.8133 83.1384 22.08 84.3384 21.52C85.5651 20.9333 86.8851 20.5067 88.2984 20.24C89.7384 19.9467 91.1251 19.8133 92.4584 19.84V17.36C92.4584 16.4267 92.3784 15.5467 92.2184 14.72C92.0584 13.8933 91.7118 13.2133 91.1784 12.68C90.6451 12.1467 89.7918 11.8667 88.6184 11.84C87.8451 11.8133 87.0451 11.96 86.2184 12.28C85.4184 12.6 84.8318 13.1467 84.4584 13.92C84.6718 14.1333 84.8051 14.3867 84.8584 14.68C84.9384 14.9467 84.9784 15.2 84.9784 15.44C84.9784 15.76 84.8451 16.1333 84.5784 16.56C84.3118 16.96 83.8451 17.1467 83.1784 17.12C82.6184 17.12 82.1918 16.9333 81.8984 16.56C81.6051 16.16 81.4584 15.6933 81.4584 15.16C81.4584 14.2533 81.7918 13.44 82.4584 12.72C83.1518 12 84.0984 11.4267 85.2984 11C86.4984 10.5733 87.8584 10.36 89.3784 10.36C91.6184 10.36 93.2718 10.96 94.3384 12.16C95.4051 13.3333 95.9251 15.2 95.8984 17.76C95.8984 18.7467 95.8984 19.7467 95.8984 20.76C95.8984 21.7467 95.8851 22.7467 95.8584 23.76C95.8584 24.7467 95.8584 25.7467 95.8584 26.76C95.8584 27.1867 95.8451 27.6133 95.8184 28.04C95.7918 28.4667 95.7518 28.9467 95.6984 29.48C96.1784 29.4533 96.6451 29.4267 97.0984 29.4C97.5784 29.3733 98.0584 29.3467 98.5384 29.32V31H92.8184ZM92.4584 21.2C91.5518 21.2267 90.5918 21.3467 89.5784 21.56C88.5918 21.7467 87.6718 22.04 86.8184 22.44C85.9918 22.84 85.3118 23.3733 84.7784 24.04C84.2718 24.68 84.0318 25.4667 84.0584 26.4C84.1118 27.3867 84.4318 28.1333 85.0184 28.64C85.6318 29.12 86.3518 29.36 87.1784 29.36C88.2718 29.36 89.2184 29.16 90.0184 28.76C90.8451 28.3333 91.6584 27.7467 92.4584 27C92.4318 26.7067 92.4184 26.3867 92.4184 26.04C92.4184 25.6933 92.4184 25.3333 92.4184 24.96C92.4184 24.8267 92.4184 24.4 92.4184 23.68C92.4451 22.96 92.4584 22.1333 92.4584 21.2ZM101.283 31V29.8C102.11 29.8 102.683 29.6 103.003 29.2C103.323 28.7733 103.51 28.2 103.563 27.48C103.617 26.7333 103.643 25.88 103.643 24.92L103.683 15.8C103.683 15.3733 103.683 14.9467 103.683 14.52C103.71 14.0933 103.763 13.6533 103.843 13.2C103.363 13.2267 102.883 13.2533 102.403 13.28C101.95 13.3067 101.483 13.3333 101.003 13.36V11.68C102.177 11.68 103.057 11.6267 103.643 11.52C104.257 11.4133 104.71 11.28 105.003 11.12C105.297 10.96 105.537 10.7867 105.723 10.6H106.883C106.91 10.7867 106.923 11 106.923 11.24C106.95 11.48 106.977 11.7467 107.003 12.04C107.03 12.3333 107.043 12.6667 107.043 13.04C107.63 12.5333 108.27 12.08 108.963 11.68C109.683 11.28 110.43 10.96 111.203 10.72C112.003 10.48 112.79 10.36 113.563 10.36C115.883 10.36 117.577 11.0933 118.643 12.56C119.71 14 120.243 16.2533 120.243 19.32V26.76C120.243 27.2933 120.23 27.7733 120.203 28.2C120.203 28.6 120.163 29.0267 120.083 29.48C120.51 29.4533 120.923 29.44 121.323 29.44C121.75 29.4133 122.177 29.3867 122.603 29.36V31H114.443V29.8C115.27 29.8 115.843 29.6 116.163 29.2C116.483 28.7733 116.67 28.2 116.723 27.48C116.777 26.7333 116.803 25.88 116.803 24.92V19.32C116.777 17.0267 116.39 15.2933 115.643 14.12C114.923 12.9467 113.777 12.3733 112.203 12.4C111.243 12.4267 110.297 12.68 109.363 13.16C108.457 13.64 107.697 14.2533 107.083 15C107.11 15.2133 107.123 15.4533 107.123 15.72C107.123 15.9867 107.123 16.2667 107.123 16.56L107.083 26.76C107.083 27.2933 107.07 27.7733 107.043 28.2C107.043 28.6 107.003 29.0267 106.923 29.48C107.35 29.4533 107.763 29.44 108.163 29.44C108.59 29.4133 109.017 29.3867 109.443 29.36V31H101.283ZM132.749 31.64C132.135 31.64 131.509 31.5467 130.869 31.36C130.229 31.2 129.629 30.8667 129.069 30.36C128.535 29.8533 128.109 29.12 127.789 28.16C127.469 27.1733 127.309 25.88 127.309 24.28L127.389 12.68L124.309 12.72V11C125.002 10.9733 125.709 10.72 126.429 10.24C127.149 9.73333 127.789 9.05333 128.349 8.2C128.935 7.34666 129.335 6.41333 129.549 5.4H130.909V11H137.629V12.56L130.909 12.64L130.829 23.76C130.829 24.96 130.922 25.9867 131.109 26.84C131.322 27.6667 131.655 28.2933 132.109 28.72C132.562 29.1467 133.149 29.36 133.869 29.36C134.615 29.36 135.309 29.1467 135.949 28.72C136.615 28.2933 137.202 27.7067 137.709 26.96L138.789 27.84C138.202 28.72 137.615 29.4133 137.029 29.92C136.469 30.4267 135.922 30.8 135.389 31.04C134.855 31.3067 134.362 31.4667 133.909 31.52C133.455 31.6 133.069 31.64 132.749 31.64ZM151.645 31V29.68C152.659 29.6267 153.352 29.4 153.725 29C154.099 28.5733 154.299 28 154.325 27.28C154.379 26.5333 154.405 25.6933 154.405 24.76V7.48C154.405 6.94667 154.419 6.44 154.445 5.96C154.472 5.45333 154.499 5 154.525 4.6C154.045 4.62667 153.565 4.65333 153.085 4.68C152.605 4.70667 152.125 4.73333 151.645 4.76V3C153.139 2.97333 154.645 2.94667 156.165 2.92C157.712 2.89333 159.259 2.90667 160.805 2.96C163.392 2.98666 165.472 3.29333 167.045 3.88C168.645 4.44 169.819 5.25333 170.565 6.32C171.312 7.36 171.685 8.62667 171.685 10.12C171.712 11.16 171.512 12.2267 171.085 13.32C170.685 14.3867 169.939 15.3467 168.845 16.2C167.779 17.0533 166.232 17.6933 164.205 18.12C164.739 18.4933 165.205 18.9733 165.605 19.56C166.005 20.1467 166.459 20.8267 166.965 21.6L169.685 25.88C170.139 26.6 170.579 27.2533 171.005 27.84C171.432 28.4 171.925 28.8533 172.485 29.2C173.045 29.52 173.739 29.68 174.565 29.68V31H169.525C168.752 30.3067 168.099 29.6133 167.565 28.92C167.059 28.2267 166.525 27.44 165.965 26.56L163.285 22.28C162.939 21.72 162.539 21.08 162.085 20.36C161.659 19.6133 161.165 18.9867 160.605 18.48C160.179 18.5067 159.725 18.52 159.245 18.52C158.792 18.52 158.339 18.5067 157.885 18.48V26.24C157.885 26.96 157.872 27.5867 157.845 28.12C157.845 28.6267 157.819 29.0533 157.765 29.4C158.085 29.3733 158.405 29.36 158.725 29.36C159.045 29.3333 159.365 29.3067 159.685 29.28C160.005 29.2533 160.325 29.24 160.645 29.24V31H151.645ZM160.365 17C161.832 16.9467 163.112 16.7067 164.205 16.28C165.325 15.8533 166.205 15.1733 166.845 14.24C167.485 13.3067 167.805 12.08 167.805 10.56C167.805 9.54667 167.659 8.66667 167.365 7.92C167.099 7.14667 166.672 6.50667 166.085 6C165.499 5.49333 164.752 5.12 163.845 4.88C162.939 4.61333 161.872 4.48 160.645 4.48C159.659 4.48 158.965 4.68 158.565 5.08C158.192 5.48 157.979 6.04 157.925 6.76C157.899 7.45333 157.885 8.28 157.885 9.24V16.92C158.312 16.9467 158.712 16.9733 159.085 17C159.485 17.0267 159.912 17.0267 160.365 17ZM185.729 31.64C183.889 31.64 182.222 31.2133 180.729 30.36C179.262 29.48 178.102 28.2533 177.249 26.68C176.396 25.08 175.969 23.2 175.969 21.04C175.969 19.1733 176.382 17.4267 177.209 15.8C178.062 14.1733 179.249 12.8667 180.769 11.88C182.289 10.8667 184.049 10.36 186.049 10.36C187.169 10.36 188.209 10.5467 189.169 10.92C190.156 11.2667 191.022 11.8133 191.769 12.56C192.516 13.28 193.102 14.2 193.529 15.32C193.956 16.4133 194.169 17.7067 194.169 19.2L180.089 19.44C180.089 21.4667 180.302 23.2533 180.729 24.8C181.182 26.32 181.902 27.5067 182.889 28.36C183.876 29.1867 185.142 29.6 186.689 29.6C187.516 29.6 188.356 29.4533 189.209 29.16C190.089 28.8667 190.902 28.4667 191.649 27.96C192.396 27.4533 192.996 26.8933 193.449 26.28L194.409 27.08C193.689 28.2 192.822 29.0933 191.809 29.76C190.796 30.4267 189.756 30.9067 188.689 31.2C187.622 31.4933 186.636 31.64 185.729 31.64ZM180.209 17.76H190.409C190.409 16.8 190.262 15.88 189.969 15C189.702 14.0933 189.249 13.36 188.609 12.8C187.969 12.2133 187.129 11.92 186.089 11.92C184.542 11.92 183.249 12.3867 182.209 13.32C181.196 14.2267 180.529 15.7067 180.209 17.76ZM207.293 31.64C205.507 31.64 203.853 31.24 202.333 30.44C200.84 29.6133 199.64 28.44 198.733 26.92C197.853 25.3733 197.413 23.52 197.413 21.36C197.413 19.9733 197.667 18.6267 198.173 17.32C198.68 16.0133 199.387 14.84 200.293 13.8C201.227 12.7333 202.333 11.8933 203.613 11.28C204.893 10.6667 206.307 10.36 207.853 10.36C209.347 10.36 210.64 10.5867 211.733 11.04C212.853 11.4933 213.72 12.0933 214.333 12.84C214.947 13.5867 215.253 14.4 215.253 15.28C215.253 15.8667 215.093 16.3733 214.773 16.8C214.453 17.2 213.987 17.4 213.373 17.4C212.707 17.4267 212.227 17.2267 211.933 16.8C211.667 16.3467 211.533 15.9467 211.533 15.6C211.533 15.3333 211.573 15.0667 211.653 14.8C211.733 14.5067 211.893 14.24 212.133 14C211.92 13.36 211.547 12.8933 211.013 12.6C210.48 12.28 209.92 12.08 209.333 12C208.773 11.8933 208.307 11.84 207.933 11.84C206.12 11.84 204.587 12.5733 203.333 14.04C202.107 15.48 201.493 17.5867 201.493 20.36C201.493 22.1467 201.773 23.7333 202.333 25.12C202.92 26.5067 203.733 27.6 204.773 28.4C205.813 29.1733 207.013 29.56 208.373 29.56C209.627 29.56 210.827 29.2267 211.973 28.56C213.12 27.8933 214.013 27.08 214.653 26.12L215.693 26.92C215 28.04 214.16 28.9467 213.173 29.64C212.213 30.3333 211.213 30.84 210.173 31.16C209.16 31.48 208.2 31.64 207.293 31.64ZM218.823 29.8C219.649 29.8 220.223 29.6 220.543 29.2C220.863 28.7733 221.049 28.2 221.103 27.48C221.156 26.7333 221.183 25.88 221.183 24.92V15.8C221.183 15.3733 221.196 14.9733 221.223 14.6C221.249 14.2 221.289 13.7333 221.343 13.2C220.863 13.2267 220.383 13.2533 219.903 13.28C219.449 13.3067 218.983 13.3333 218.503 13.36V11.68C219.676 11.68 220.583 11.6267 221.223 11.52C221.863 11.4133 222.343 11.28 222.663 11.12C223.009 10.96 223.276 10.7867 223.463 10.6H224.623V26.76C224.623 27.2933 224.609 27.7733 224.583 28.2C224.583 28.6 224.543 29.0267 224.463 29.48C224.889 29.4533 225.303 29.44 225.703 29.44C226.129 29.4133 226.556 29.3867 226.983 29.36V31H218.823V29.8ZM222.703 6.64C222.143 6.64 221.649 6.41333 221.223 5.96C220.796 5.50667 220.583 4.94667 220.583 4.28C220.583 3.61333 220.796 3.05333 221.223 2.6C221.676 2.12 222.183 1.88 222.743 1.88C223.356 1.88 223.863 2.12 224.263 2.6C224.689 3.05333 224.903 3.61333 224.903 4.28C224.903 4.94667 224.676 5.50667 224.223 5.96C223.796 6.41333 223.289 6.64 222.703 6.64ZM229.713 41.2V40C230.539 40 231.113 39.7867 231.433 39.36C231.753 38.96 231.939 38.3867 231.993 37.64C232.046 36.92 232.073 36.08 232.073 35.12L232.153 15.8C232.153 15.3733 232.153 14.9467 232.153 14.52C232.179 14.0933 232.233 13.6533 232.313 13.2C231.833 13.2267 231.353 13.2533 230.873 13.28C230.419 13.3067 229.953 13.3333 229.473 13.36V11.68C230.646 11.68 231.526 11.6267 232.113 11.52C232.726 11.4133 233.166 11.28 233.433 11.12C233.726 10.96 233.966 10.7867 234.153 10.6H235.353C235.379 10.8667 235.406 11.1867 235.433 11.56C235.459 11.9067 235.486 12.3067 235.513 12.76C236.313 12.04 237.259 11.4667 238.353 11.04C239.473 10.5867 240.593 10.36 241.713 10.36C243.259 10.36 244.699 10.76 246.033 11.56C247.366 12.36 248.446 13.5067 249.273 15C250.099 16.4667 250.513 18.2267 250.513 20.28C250.513 22.5467 250.033 24.5333 249.073 26.24C248.139 27.9467 246.899 29.28 245.353 30.24C243.806 31.1733 242.126 31.64 240.313 31.64C239.379 31.64 238.513 31.52 237.713 31.28C236.939 31.0667 236.206 30.7467 235.513 30.32V36.96C235.513 37.4933 235.499 37.96 235.473 38.36C235.473 38.7867 235.433 39.2267 235.353 39.68C235.779 39.6533 236.193 39.6267 236.593 39.6C237.019 39.6 237.446 39.5867 237.873 39.56V41.2H229.713ZM240.233 30.04C241.513 30.04 242.606 29.6533 243.513 28.88C244.446 28.08 245.153 27 245.633 25.64C246.139 24.2533 246.393 22.68 246.393 20.92C246.393 19.48 246.179 18.1067 245.753 16.8C245.353 15.4667 244.699 14.3867 243.793 13.56C242.913 12.7333 241.739 12.32 240.273 12.32C239.366 12.32 238.486 12.5467 237.633 13C236.806 13.4267 236.113 13.9467 235.553 14.56C235.553 14.6667 235.553 14.8267 235.553 15.04C235.579 15.2267 235.593 15.5733 235.593 16.08C235.593 16.56 235.593 17.2933 235.593 18.28C235.593 19.24 235.579 20.5467 235.553 22.2C235.553 23.8533 235.553 25.9467 235.553 28.48C236.219 28.9867 236.939 29.3733 237.713 29.64C238.513 29.9067 239.353 30.04 240.233 30.04ZM263.62 31.64C261.78 31.64 260.113 31.2133 258.62 30.36C257.153 29.48 255.993 28.2533 255.14 26.68C254.286 25.08 253.86 23.2 253.86 21.04C253.86 19.1733 254.273 17.4267 255.1 15.8C255.953 14.1733 257.14 12.8667 258.66 11.88C260.18 10.8667 261.94 10.36 263.94 10.36C265.06 10.36 266.1 10.5467 267.06 10.92C268.046 11.2667 268.913 11.8133 269.66 12.56C270.406 13.28 270.993 14.2 271.42 15.32C271.846 16.4133 272.06 17.7067 272.06 19.2L257.98 19.44C257.98 21.4667 258.193 23.2533 258.62 24.8C259.073 26.32 259.793 27.5067 260.78 28.36C261.766 29.1867 263.033 29.6 264.58 29.6C265.406 29.6 266.246 29.4533 267.1 29.16C267.98 28.8667 268.793 28.4667 269.54 27.96C270.286 27.4533 270.886 26.8933 271.34 26.28L272.3 27.08C271.58 28.2 270.713 29.0933 269.7 29.76C268.686 30.4267 267.646 30.9067 266.58 31.2C265.513 31.4933 264.526 31.64 263.62 31.64ZM258.1 17.76H268.3C268.3 16.8 268.153 15.88 267.86 15C267.593 14.0933 267.14 13.36 266.5 12.8C265.86 12.2133 265.02 11.92 263.98 11.92C262.433 11.92 261.14 12.3867 260.1 13.32C259.086 14.2267 258.42 15.7067 258.1 17.76ZM283.819 31.64C282.486 31.64 281.299 31.4533 280.259 31.08C279.219 30.7333 278.366 30.3333 277.699 29.88L277.859 31.28H276.179L275.939 24.4H277.179C277.233 25.4933 277.539 26.48 278.099 27.36C278.659 28.2133 279.379 28.88 280.259 29.36C281.139 29.84 282.086 30.08 283.099 30.08C283.793 30.08 284.473 29.9733 285.139 29.76C285.806 29.52 286.366 29.1733 286.819 28.72C287.273 28.24 287.499 27.64 287.499 26.92C287.499 26.1733 287.273 25.56 286.819 25.08C286.393 24.5733 285.819 24.1333 285.099 23.76C284.379 23.3867 283.606 23.04 282.779 22.72C281.979 22.4 281.179 22.0667 280.379 21.72C279.579 21.3733 278.833 20.96 278.139 20.48C277.473 20 276.939 19.4133 276.539 18.72C276.139 18.0267 275.939 17.1733 275.939 16.16C275.939 15.6 276.046 14.9867 276.259 14.32C276.473 13.6533 276.833 13.0267 277.339 12.44C277.846 11.8267 278.539 11.3333 279.419 10.96C280.299 10.56 281.419 10.36 282.779 10.36C283.499 10.36 284.299 10.48 285.179 10.72C286.059 10.96 286.913 11.4133 287.739 12.08L287.659 10.56H289.339V17.56H288.059C288.006 16.6267 287.793 15.7333 287.419 14.88C287.046 14 286.499 13.28 285.779 12.72C285.059 12.1333 284.126 11.84 282.979 11.84C281.753 11.84 280.793 12.1467 280.099 12.76C279.406 13.3733 279.059 14.08 279.059 14.88C279.059 15.7067 279.313 16.4 279.819 16.96C280.353 17.4933 281.033 17.96 281.859 18.36C282.686 18.76 283.566 19.1467 284.499 19.52C285.513 19.9467 286.499 20.4133 287.459 20.92C288.419 21.4267 289.206 22.0667 289.819 22.84C290.433 23.5867 290.739 24.56 290.739 25.76C290.739 27.0933 290.393 28.2 289.699 29.08C289.033 29.96 288.166 30.6 287.099 31C286.059 31.4267 284.966 31.64 283.819 31.64Z" fill="white"/>
</svg>
