<svg width="295" height="73" viewBox="0 0 295 73" fill="none" xmlns="http://www.w3.org/2000/svg">
<g clip-path="url(#clip0_59_667)">
<path d="M31.0987 10.6518C28.8359 9.46247 26.0553 9.91008 24.2739 11.7475C23.7575 11.0846 23.129 10.5421 22.3875 10.1524C21.0312 9.43956 19.4473 9.29472 17.9843 9.74971C16.5212 10.2047 15.2988 11.2223 14.586 12.5785C13.9938 13.7126 13.7938 15.0109 14.0173 16.2706C14.2407 17.5303 14.875 18.6806 15.821 19.5419L11.0303 28.6573L27.6502 37.3921L32.4409 28.2768C35.0001 28.8712 37.6537 27.6717 38.8766 25.3449C39.5894 23.9886 39.7342 22.4047 39.2793 20.9417C38.8243 19.4786 37.8067 18.2562 36.4504 17.5434C35.7089 17.1537 34.9057 16.9436 34.0668 16.8943C34.5698 14.385 33.3616 11.841 31.0987 10.6518V10.6518ZM24.4123 21.8219L25.6907 22.4938L20.9873 31.443L19.7089 30.7711L24.4123 21.8219ZM19.2331 22.363L20.5116 23.035L17.152 29.4272L15.8735 28.7553L19.2331 22.363V22.363ZM26.9038 26.3945L28.1823 27.0664L24.8227 33.4587L23.5443 32.7868L26.9038 26.3945ZM10.3584 29.9357L9.68648 31.2142C9.50828 31.5532 9.47207 31.9492 9.58581 32.315C9.69956 32.6807 9.95395 32.9863 10.293 33.1645L24.356 40.5556C24.6951 40.7338 25.091 40.77 25.4568 40.6562C25.8226 40.5425 26.1282 40.2881 26.3064 39.949L26.9783 38.6706L10.3584 29.9357Z" fill="white"/>
</g>
<path d="M2.2 62V60.68C3.21333 60.6267 3.90667 60.4 4.28 60C4.65333 59.5733 4.85333 59 4.88 58.28C4.93333 57.5333 4.96 56.6933 4.96 55.76V38.48C4.96 37.9467 4.97333 37.44 5 36.96C5.02667 36.4533 5.05333 36 5.08 35.6C4.6 35.6267 4.12 35.6533 3.64 35.68C3.16 35.7067 2.68 35.7333 2.2 35.76V34C3.69333 33.9733 5.2 33.9467 6.72 33.92C8.26667 33.8933 9.81333 33.9067 11.36 33.96C13.9467 33.9867 16.0267 34.2933 17.6 34.88C19.2 35.44 20.3733 36.2533 21.12 37.32C21.8667 38.36 22.24 39.6267 22.24 41.12C22.2667 42.16 22.0667 43.2267 21.64 44.32C21.24 45.3867 20.4933 46.3467 19.4 47.2C18.3333 48.0533 16.7867 48.6933 14.76 49.12C15.2933 49.4933 15.76 49.9733 16.16 50.56C16.56 51.1467 17.0133 51.8267 17.52 52.6L20.24 56.88C20.6933 57.6 21.1333 58.2533 21.56 58.84C21.9867 59.4 22.48 59.8533 23.04 60.2C23.6 60.52 24.2933 60.68 25.12 60.68V62H20.08C19.3067 61.3067 18.6533 60.6133 18.12 59.92C17.6133 59.2267 17.08 58.44 16.52 57.56L13.84 53.28C13.4933 52.72 13.0933 52.08 12.64 51.36C12.2133 50.6133 11.72 49.9867 11.16 49.48C10.7333 49.5067 10.28 49.52 9.8 49.52C9.34667 49.52 8.89333 49.5067 8.44 49.48V57.24C8.44 57.96 8.42667 58.5867 8.4 59.12C8.4 59.6267 8.37333 60.0533 8.32 60.4C8.64 60.3733 8.96 60.36 9.28 60.36C9.6 60.3333 9.92 60.3067 10.24 60.28C10.56 60.2533 10.88 60.24 11.2 60.24V62H2.2ZM10.92 48C12.3867 47.9467 13.6667 47.7067 14.76 47.28C15.88 46.8533 16.76 46.1733 17.4 45.24C18.04 44.3067 18.36 43.08 18.36 41.56C18.36 40.5467 18.2133 39.6667 17.92 38.92C17.6533 38.1467 17.2267 37.5067 16.64 37C16.0533 36.4933 15.3067 36.12 14.4 35.88C13.4933 35.6133 12.4267 35.48 11.2 35.48C10.2133 35.48 9.52 35.68 9.12 36.08C8.74667 36.48 8.53333 37.04 8.48 37.76C8.45333 38.4533 8.44 39.28 8.44 40.24V47.92C8.86667 47.9467 9.26667 47.9733 9.64 48C10.04 48.0267 10.4667 48.0267 10.92 48ZM39.0372 62C38.9572 61.5467 38.9039 61.1467 38.8772 60.8C38.8505 60.4533 38.8105 60.0933 38.7572 59.72C37.8505 60.6267 36.8639 61.3467 35.7972 61.88C34.7572 62.3867 33.6505 62.64 32.4772 62.64C30.4505 62.64 28.9439 62.1867 27.9572 61.28C26.9705 60.3467 26.4772 59.2133 26.4772 57.88C26.4772 56.6533 26.8505 55.6 27.5972 54.72C28.3705 53.8133 29.3572 53.08 30.5572 52.52C31.7839 51.9333 33.1039 51.5067 34.5172 51.24C35.9572 50.9467 37.3439 50.8133 38.6772 50.84V48.36C38.6772 47.4267 38.5972 46.5467 38.4372 45.72C38.2772 44.8933 37.9305 44.2133 37.3972 43.68C36.8639 43.1467 36.0105 42.8667 34.8372 42.84C34.0639 42.8133 33.2639 42.96 32.4372 43.28C31.6372 43.6 31.0505 44.1467 30.6772 44.92C30.8905 45.1333 31.0239 45.3867 31.0772 45.68C31.1572 45.9467 31.1972 46.2 31.1972 46.44C31.1972 46.76 31.0639 47.1333 30.7972 47.56C30.5305 47.96 30.0639 48.1467 29.3972 48.12C28.8372 48.12 28.4105 47.9333 28.1172 47.56C27.8239 47.16 27.6772 46.6933 27.6772 46.16C27.6772 45.2533 28.0105 44.44 28.6772 43.72C29.3705 43 30.3172 42.4267 31.5172 42C32.7172 41.5733 34.0772 41.36 35.5972 41.36C37.8372 41.36 39.4905 41.96 40.5572 43.16C41.6239 44.3333 42.1439 46.2 42.1172 48.76C42.1172 49.7467 42.1172 50.7467 42.1172 51.76C42.1172 52.7467 42.1039 53.7467 42.0772 54.76C42.0772 55.7467 42.0772 56.7467 42.0772 57.76C42.0772 58.1867 42.0639 58.6133 42.0372 59.04C42.0105 59.4667 41.9705 59.9467 41.9172 60.48C42.3972 60.4533 42.8639 60.4267 43.3172 60.4C43.7972 60.3733 44.2772 60.3467 44.7572 60.32V62H39.0372ZM38.6772 52.2C37.7705 52.2267 36.8105 52.3467 35.7972 52.56C34.8105 52.7467 33.8905 53.04 33.0372 53.44C32.2105 53.84 31.5305 54.3733 30.9972 55.04C30.4905 55.68 30.2505 56.4667 30.2772 57.4C30.3305 58.3867 30.6505 59.1333 31.2372 59.64C31.8505 60.12 32.5705 60.36 33.3972 60.36C34.4905 60.36 35.4372 60.16 36.2372 59.76C37.0639 59.3333 37.8772 58.7467 38.6772 58C38.6505 57.7067 38.6372 57.3867 38.6372 57.04C38.6372 56.6933 38.6372 56.3333 38.6372 55.96C38.6372 55.8267 38.6372 55.4 38.6372 54.68C38.6639 53.96 38.6772 53.1333 38.6772 52.2ZM56.0622 62.64C54.4355 62.64 52.9689 62.24 51.6622 61.44C50.3555 60.6133 49.3155 59.44 48.5422 57.92C47.7955 56.4 47.4222 54.6133 47.4222 52.56C47.4222 50.3733 47.8622 48.44 48.7422 46.76C49.6222 45.08 50.8355 43.76 52.3822 42.8C53.9555 41.84 55.7289 41.36 57.7022 41.36C58.5822 41.36 59.4489 41.48 60.3022 41.72C61.1822 41.9333 61.8755 42.1867 62.3822 42.48V37C62.3822 36.5733 62.3822 36.1733 62.3822 35.8C62.4089 35.4 62.4489 34.9333 62.5022 34.4C62.0222 34.4267 61.5422 34.4533 61.0622 34.48C60.6089 34.5067 60.1422 34.5333 59.6622 34.56V32.88C60.8355 32.88 61.7422 32.8267 62.3822 32.72C63.0222 32.6133 63.5022 32.48 63.8222 32.32C64.1689 32.16 64.4355 31.9867 64.6222 31.8H65.7822V57.76C65.7822 58.1867 65.7689 58.6133 65.7422 59.04C65.7155 59.4667 65.6755 59.9467 65.6222 60.48C66.1022 60.4533 66.5689 60.4267 67.0222 60.4C67.5022 60.3733 67.9822 60.3467 68.4622 60.32V62H62.7422C62.6622 61.6 62.5955 61.24 62.5422 60.92C62.5155 60.5733 62.4889 60.24 62.4622 59.92C61.7155 60.7467 60.7955 61.4133 59.7022 61.92C58.6089 62.4 57.3955 62.64 56.0622 62.64ZM57.5022 60.68C58.3822 60.68 59.2622 60.4267 60.1422 59.92C61.0489 59.4133 61.7955 58.7867 62.3822 58.04C62.3555 57.72 62.3422 57.3867 62.3422 57.04C62.3422 56.6667 62.3422 56.2667 62.3422 55.84L62.3822 44.32C61.7422 43.84 61.0355 43.4933 60.2622 43.28C59.5155 43.04 58.7422 42.92 57.9422 42.92C56.6089 42.92 55.4489 43.3067 54.4622 44.08C53.4755 44.8533 52.7289 45.9333 52.2222 47.32C51.7155 48.7067 51.4889 50.3333 51.5422 52.2C51.5955 53.8267 51.8489 55.28 52.3022 56.56C52.7822 57.84 53.4489 58.8533 54.3022 59.6C55.1822 60.32 56.2489 60.68 57.5022 60.68ZM71.4084 60.8C72.2351 60.8 72.8084 60.6 73.1284 60.2C73.4484 59.7733 73.6351 59.2 73.6884 58.48C73.7418 57.7333 73.7684 56.88 73.7684 55.92V46.8C73.7684 46.3733 73.7818 45.9733 73.8084 45.6C73.8351 45.2 73.8751 44.7333 73.9284 44.2C73.4484 44.2267 72.9684 44.2533 72.4884 44.28C72.0351 44.3067 71.5684 44.3333 71.0884 44.36V42.68C72.2618 42.68 73.1684 42.6267 73.8084 42.52C74.4484 42.4133 74.9284 42.28 75.2484 42.12C75.5951 41.96 75.8618 41.7867 76.0484 41.6H77.2084V57.76C77.2084 58.2933 77.1951 58.7733 77.1684 59.2C77.1684 59.6 77.1284 60.0267 77.0484 60.48C77.4751 60.4533 77.8884 60.44 78.2884 60.44C78.7151 60.4133 79.1418 60.3867 79.5684 60.36V62H71.4084V60.8ZM75.2884 37.64C74.7284 37.64 74.2351 37.4133 73.8084 36.96C73.3818 36.5067 73.1684 35.9467 73.1684 35.28C73.1684 34.6133 73.3818 34.0533 73.8084 33.6C74.2618 33.12 74.7684 32.88 75.3284 32.88C75.9418 32.88 76.4484 33.12 76.8484 33.6C77.2751 34.0533 77.4884 34.6133 77.4884 35.28C77.4884 35.9467 77.2618 36.5067 76.8084 36.96C76.3818 37.4133 75.8751 37.64 75.2884 37.64ZM94.8184 62C94.7384 61.5467 94.6851 61.1467 94.6584 60.8C94.6318 60.4533 94.5918 60.0933 94.5384 59.72C93.6318 60.6267 92.6451 61.3467 91.5784 61.88C90.5384 62.3867 89.4318 62.64 88.2584 62.64C86.2318 62.64 84.7251 62.1867 83.7384 61.28C82.7518 60.3467 82.2584 59.2133 82.2584 57.88C82.2584 56.6533 82.6318 55.6 83.3784 54.72C84.1518 53.8133 85.1384 53.08 86.3384 52.52C87.5651 51.9333 88.8851 51.5067 90.2984 51.24C91.7384 50.9467 93.1251 50.8133 94.4584 50.84V48.36C94.4584 47.4267 94.3784 46.5467 94.2184 45.72C94.0584 44.8933 93.7118 44.2133 93.1784 43.68C92.6451 43.1467 91.7918 42.8667 90.6184 42.84C89.8451 42.8133 89.0451 42.96 88.2184 43.28C87.4184 43.6 86.8318 44.1467 86.4584 44.92C86.6718 45.1333 86.8051 45.3867 86.8584 45.68C86.9384 45.9467 86.9784 46.2 86.9784 46.44C86.9784 46.76 86.8451 47.1333 86.5784 47.56C86.3118 47.96 85.8451 48.1467 85.1784 48.12C84.6184 48.12 84.1918 47.9333 83.8984 47.56C83.6051 47.16 83.4584 46.6933 83.4584 46.16C83.4584 45.2533 83.7918 44.44 84.4584 43.72C85.1518 43 86.0984 42.4267 87.2984 42C88.4984 41.5733 89.8584 41.36 91.3784 41.36C93.6184 41.36 95.2718 41.96 96.3384 43.16C97.4051 44.3333 97.9251 46.2 97.8984 48.76C97.8984 49.7467 97.8984 50.7467 97.8984 51.76C97.8984 52.7467 97.8851 53.7467 97.8584 54.76C97.8584 55.7467 97.8584 56.7467 97.8584 57.76C97.8584 58.1867 97.8451 58.6133 97.8184 59.04C97.7918 59.4667 97.7518 59.9467 97.6984 60.48C98.1784 60.4533 98.6451 60.4267 99.0984 60.4C99.5784 60.3733 100.058 60.3467 100.538 60.32V62H94.8184ZM94.4584 52.2C93.5518 52.2267 92.5918 52.3467 91.5784 52.56C90.5918 52.7467 89.6718 53.04 88.8184 53.44C87.9918 53.84 87.3118 54.3733 86.7784 55.04C86.2718 55.68 86.0318 56.4667 86.0584 57.4C86.1118 58.3867 86.4318 59.1333 87.0184 59.64C87.6318 60.12 88.3518 60.36 89.1784 60.36C90.2718 60.36 91.2184 60.16 92.0184 59.76C92.8451 59.3333 93.6584 58.7467 94.4584 58C94.4318 57.7067 94.4184 57.3867 94.4184 57.04C94.4184 56.6933 94.4184 56.3333 94.4184 55.96C94.4184 55.8267 94.4184 55.4 94.4184 54.68C94.4451 53.96 94.4584 53.1333 94.4584 52.2ZM103.283 62V60.8C104.11 60.8 104.683 60.6 105.003 60.2C105.323 59.7733 105.51 59.2 105.563 58.48C105.617 57.7333 105.643 56.88 105.643 55.92L105.683 46.8C105.683 46.3733 105.683 45.9467 105.683 45.52C105.71 45.0933 105.763 44.6533 105.843 44.2C105.363 44.2267 104.883 44.2533 104.403 44.28C103.95 44.3067 103.483 44.3333 103.003 44.36V42.68C104.177 42.68 105.057 42.6267 105.643 42.52C106.257 42.4133 106.71 42.28 107.003 42.12C107.297 41.96 107.537 41.7867 107.723 41.6H108.883C108.91 41.7867 108.923 42 108.923 42.24C108.95 42.48 108.977 42.7467 109.003 43.04C109.03 43.3333 109.043 43.6667 109.043 44.04C109.63 43.5333 110.27 43.08 110.963 42.68C111.683 42.28 112.43 41.96 113.203 41.72C114.003 41.48 114.79 41.36 115.563 41.36C117.883 41.36 119.577 42.0933 120.643 43.56C121.71 45 122.243 47.2533 122.243 50.32V57.76C122.243 58.2933 122.23 58.7733 122.203 59.2C122.203 59.6 122.163 60.0267 122.083 60.48C122.51 60.4533 122.923 60.44 123.323 60.44C123.75 60.4133 124.177 60.3867 124.603 60.36V62H116.443V60.8C117.27 60.8 117.843 60.6 118.163 60.2C118.483 59.7733 118.67 59.2 118.723 58.48C118.777 57.7333 118.803 56.88 118.803 55.92V50.32C118.777 48.0267 118.39 46.2933 117.643 45.12C116.923 43.9467 115.777 43.3733 114.203 43.4C113.243 43.4267 112.297 43.68 111.363 44.16C110.457 44.64 109.697 45.2533 109.083 46C109.11 46.2133 109.123 46.4533 109.123 46.72C109.123 46.9867 109.123 47.2667 109.123 47.56L109.083 57.76C109.083 58.2933 109.07 58.7733 109.043 59.2C109.043 59.6 109.003 60.0267 108.923 60.48C109.35 60.4533 109.763 60.44 110.163 60.44C110.59 60.4133 111.017 60.3867 111.443 60.36V62H103.283ZM134.749 62.64C134.135 62.64 133.509 62.5467 132.869 62.36C132.229 62.2 131.629 61.8667 131.069 61.36C130.535 60.8533 130.109 60.12 129.789 59.16C129.469 58.1733 129.309 56.88 129.309 55.28L129.389 43.68L126.309 43.72V42C127.002 41.9733 127.709 41.72 128.429 41.24C129.149 40.7333 129.789 40.0533 130.349 39.2C130.935 38.3467 131.335 37.4133 131.549 36.4H132.909V42H139.629V43.56L132.909 43.64L132.829 54.76C132.829 55.96 132.922 56.9867 133.109 57.84C133.322 58.6667 133.655 59.2933 134.109 59.72C134.562 60.1467 135.149 60.36 135.869 60.36C136.615 60.36 137.309 60.1467 137.949 59.72C138.615 59.2933 139.202 58.7067 139.709 57.96L140.789 58.84C140.202 59.72 139.615 60.4133 139.029 60.92C138.469 61.4267 137.922 61.8 137.389 62.04C136.855 62.3067 136.362 62.4667 135.909 62.52C135.455 62.6 135.069 62.64 134.749 62.64ZM153.645 62V60.68C154.659 60.6267 155.352 60.4 155.725 60C156.099 59.5733 156.299 59 156.325 58.28C156.379 57.5333 156.405 56.6933 156.405 55.76V38.48C156.405 37.9467 156.419 37.44 156.445 36.96C156.472 36.4533 156.499 36 156.525 35.6C156.045 35.6267 155.565 35.6533 155.085 35.68C154.605 35.7067 154.125 35.7333 153.645 35.76V34C155.139 33.9733 156.645 33.9467 158.165 33.92C159.712 33.8933 161.259 33.9067 162.805 33.96C165.392 33.9867 167.472 34.2933 169.045 34.88C170.645 35.44 171.819 36.2533 172.565 37.32C173.312 38.36 173.685 39.6267 173.685 41.12C173.712 42.16 173.512 43.2267 173.085 44.32C172.685 45.3867 171.939 46.3467 170.845 47.2C169.779 48.0533 168.232 48.6933 166.205 49.12C166.739 49.4933 167.205 49.9733 167.605 50.56C168.005 51.1467 168.459 51.8267 168.965 52.6L171.685 56.88C172.139 57.6 172.579 58.2533 173.005 58.84C173.432 59.4 173.925 59.8533 174.485 60.2C175.045 60.52 175.739 60.68 176.565 60.68V62H171.525C170.752 61.3067 170.099 60.6133 169.565 59.92C169.059 59.2267 168.525 58.44 167.965 57.56L165.285 53.28C164.939 52.72 164.539 52.08 164.085 51.36C163.659 50.6133 163.165 49.9867 162.605 49.48C162.179 49.5067 161.725 49.52 161.245 49.52C160.792 49.52 160.339 49.5067 159.885 49.48V57.24C159.885 57.96 159.872 58.5867 159.845 59.12C159.845 59.6267 159.819 60.0533 159.765 60.4C160.085 60.3733 160.405 60.36 160.725 60.36C161.045 60.3333 161.365 60.3067 161.685 60.28C162.005 60.2533 162.325 60.24 162.645 60.24V62H153.645ZM162.365 48C163.832 47.9467 165.112 47.7067 166.205 47.28C167.325 46.8533 168.205 46.1733 168.845 45.24C169.485 44.3067 169.805 43.08 169.805 41.56C169.805 40.5467 169.659 39.6667 169.365 38.92C169.099 38.1467 168.672 37.5067 168.085 37C167.499 36.4933 166.752 36.12 165.845 35.88C164.939 35.6133 163.872 35.48 162.645 35.48C161.659 35.48 160.965 35.68 160.565 36.08C160.192 36.48 159.979 37.04 159.925 37.76C159.899 38.4533 159.885 39.28 159.885 40.24V47.92C160.312 47.9467 160.712 47.9733 161.085 48C161.485 48.0267 161.912 48.0267 162.365 48ZM187.729 62.64C185.889 62.64 184.222 62.2133 182.729 61.36C181.262 60.48 180.102 59.2533 179.249 57.68C178.396 56.08 177.969 54.2 177.969 52.04C177.969 50.1733 178.382 48.4267 179.209 46.8C180.062 45.1733 181.249 43.8667 182.769 42.88C184.289 41.8667 186.049 41.36 188.049 41.36C189.169 41.36 190.209 41.5467 191.169 41.92C192.156 42.2667 193.022 42.8133 193.769 43.56C194.516 44.28 195.102 45.2 195.529 46.32C195.956 47.4133 196.169 48.7067 196.169 50.2L182.089 50.44C182.089 52.4667 182.302 54.2533 182.729 55.8C183.182 57.32 183.902 58.5067 184.889 59.36C185.876 60.1867 187.142 60.6 188.689 60.6C189.516 60.6 190.356 60.4533 191.209 60.16C192.089 59.8667 192.902 59.4667 193.649 58.96C194.396 58.4533 194.996 57.8933 195.449 57.28L196.409 58.08C195.689 59.2 194.822 60.0933 193.809 60.76C192.796 61.4267 191.756 61.9067 190.689 62.2C189.622 62.4933 188.636 62.64 187.729 62.64ZM182.209 48.76H192.409C192.409 47.8 192.262 46.88 191.969 46C191.702 45.0933 191.249 44.36 190.609 43.8C189.969 43.2133 189.129 42.92 188.089 42.92C186.542 42.92 185.249 43.3867 184.209 44.32C183.196 45.2267 182.529 46.7067 182.209 48.76ZM209.293 62.64C207.507 62.64 205.853 62.24 204.333 61.44C202.84 60.6133 201.64 59.44 200.733 57.92C199.853 56.3733 199.413 54.52 199.413 52.36C199.413 50.9733 199.667 49.6267 200.173 48.32C200.68 47.0133 201.387 45.84 202.293 44.8C203.227 43.7333 204.333 42.8933 205.613 42.28C206.893 41.6667 208.307 41.36 209.853 41.36C211.347 41.36 212.64 41.5867 213.733 42.04C214.853 42.4933 215.72 43.0933 216.333 43.84C216.947 44.5867 217.253 45.4 217.253 46.28C217.253 46.8667 217.093 47.3733 216.773 47.8C216.453 48.2 215.987 48.4 215.373 48.4C214.707 48.4267 214.227 48.2267 213.933 47.8C213.667 47.3467 213.533 46.9467 213.533 46.6C213.533 46.3333 213.573 46.0667 213.653 45.8C213.733 45.5067 213.893 45.24 214.133 45C213.92 44.36 213.547 43.8933 213.013 43.6C212.48 43.28 211.92 43.08 211.333 43C210.773 42.8933 210.307 42.84 209.933 42.84C208.12 42.84 206.587 43.5733 205.333 45.04C204.107 46.48 203.493 48.5867 203.493 51.36C203.493 53.1467 203.773 54.7333 204.333 56.12C204.92 57.5067 205.733 58.6 206.773 59.4C207.813 60.1733 209.013 60.56 210.373 60.56C211.627 60.56 212.827 60.2267 213.973 59.56C215.12 58.8933 216.013 58.08 216.653 57.12L217.693 57.92C217 59.04 216.16 59.9467 215.173 60.64C214.213 61.3333 213.213 61.84 212.173 62.16C211.16 62.48 210.2 62.64 209.293 62.64ZM220.823 60.8C221.649 60.8 222.223 60.6 222.543 60.2C222.863 59.7733 223.049 59.2 223.103 58.48C223.156 57.7333 223.183 56.88 223.183 55.92V46.8C223.183 46.3733 223.196 45.9733 223.223 45.6C223.249 45.2 223.289 44.7333 223.343 44.2C222.863 44.2267 222.383 44.2533 221.903 44.28C221.449 44.3067 220.983 44.3333 220.503 44.36V42.68C221.676 42.68 222.583 42.6267 223.223 42.52C223.863 42.4133 224.343 42.28 224.663 42.12C225.009 41.96 225.276 41.7867 225.463 41.6H226.623V57.76C226.623 58.2933 226.609 58.7733 226.583 59.2C226.583 59.6 226.543 60.0267 226.463 60.48C226.889 60.4533 227.303 60.44 227.703 60.44C228.129 60.4133 228.556 60.3867 228.983 60.36V62H220.823V60.8ZM224.703 37.64C224.143 37.64 223.649 37.4133 223.223 36.96C222.796 36.5067 222.583 35.9467 222.583 35.28C222.583 34.6133 222.796 34.0533 223.223 33.6C223.676 33.12 224.183 32.88 224.743 32.88C225.356 32.88 225.863 33.12 226.263 33.6C226.689 34.0533 226.903 34.6133 226.903 35.28C226.903 35.9467 226.676 36.5067 226.223 36.96C225.796 37.4133 225.289 37.64 224.703 37.64ZM231.713 72.2V71C232.539 71 233.113 70.7867 233.433 70.36C233.753 69.96 233.939 69.3867 233.993 68.64C234.046 67.92 234.073 67.08 234.073 66.12L234.153 46.8C234.153 46.3733 234.153 45.9467 234.153 45.52C234.179 45.0933 234.233 44.6533 234.313 44.2C233.833 44.2267 233.353 44.2533 232.873 44.28C232.419 44.3067 231.953 44.3333 231.473 44.36V42.68C232.646 42.68 233.526 42.6267 234.113 42.52C234.726 42.4133 235.166 42.28 235.433 42.12C235.726 41.96 235.966 41.7867 236.153 41.6H237.353C237.379 41.8667 237.406 42.1867 237.433 42.56C237.459 42.9067 237.486 43.3067 237.513 43.76C238.313 43.04 239.259 42.4667 240.353 42.04C241.473 41.5867 242.593 41.36 243.713 41.36C245.259 41.36 246.699 41.76 248.033 42.56C249.366 43.36 250.446 44.5067 251.273 46C252.099 47.4667 252.513 49.2267 252.513 51.28C252.513 53.5467 252.033 55.5333 251.073 57.24C250.139 58.9467 248.899 60.28 247.353 61.24C245.806 62.1733 244.126 62.64 242.313 62.64C241.379 62.64 240.513 62.52 239.713 62.28C238.939 62.0667 238.206 61.7467 237.513 61.32V67.96C237.513 68.4933 237.499 68.96 237.473 69.36C237.473 69.7867 237.433 70.2267 237.353 70.68C237.779 70.6533 238.193 70.6267 238.593 70.6C239.019 70.6 239.446 70.5867 239.873 70.56V72.2H231.713ZM242.233 61.04C243.513 61.04 244.606 60.6533 245.513 59.88C246.446 59.08 247.153 58 247.633 56.64C248.139 55.2533 248.393 53.68 248.393 51.92C248.393 50.48 248.179 49.1067 247.753 47.8C247.353 46.4667 246.699 45.3867 245.793 44.56C244.913 43.7333 243.739 43.32 242.273 43.32C241.366 43.32 240.486 43.5467 239.633 44C238.806 44.4267 238.113 44.9467 237.553 45.56C237.553 45.6667 237.553 45.8267 237.553 46.04C237.579 46.2267 237.593 46.5733 237.593 47.08C237.593 47.56 237.593 48.2933 237.593 49.28C237.593 50.24 237.579 51.5467 237.553 53.2C237.553 54.8533 237.553 56.9467 237.553 59.48C238.219 59.9867 238.939 60.3733 239.713 60.64C240.513 60.9067 241.353 61.04 242.233 61.04ZM265.62 62.64C263.78 62.64 262.113 62.2133 260.62 61.36C259.153 60.48 257.993 59.2533 257.14 57.68C256.286 56.08 255.86 54.2 255.86 52.04C255.86 50.1733 256.273 48.4267 257.1 46.8C257.953 45.1733 259.14 43.8667 260.66 42.88C262.18 41.8667 263.94 41.36 265.94 41.36C267.06 41.36 268.1 41.5467 269.06 41.92C270.046 42.2667 270.913 42.8133 271.66 43.56C272.406 44.28 272.993 45.2 273.42 46.32C273.846 47.4133 274.06 48.7067 274.06 50.2L259.98 50.44C259.98 52.4667 260.193 54.2533 260.62 55.8C261.073 57.32 261.793 58.5067 262.78 59.36C263.766 60.1867 265.033 60.6 266.58 60.6C267.406 60.6 268.246 60.4533 269.1 60.16C269.98 59.8667 270.793 59.4667 271.54 58.96C272.286 58.4533 272.886 57.8933 273.34 57.28L274.3 58.08C273.58 59.2 272.713 60.0933 271.7 60.76C270.686 61.4267 269.646 61.9067 268.58 62.2C267.513 62.4933 266.526 62.64 265.62 62.64ZM260.1 48.76H270.3C270.3 47.8 270.153 46.88 269.86 46C269.593 45.0933 269.14 44.36 268.5 43.8C267.86 43.2133 267.02 42.92 265.98 42.92C264.433 42.92 263.14 43.3867 262.1 44.32C261.086 45.2267 260.42 46.7067 260.1 48.76ZM285.819 62.64C284.486 62.64 283.299 62.4533 282.259 62.08C281.219 61.7333 280.366 61.3333 279.699 60.88L279.859 62.28H278.179L277.939 55.4H279.179C279.233 56.4933 279.539 57.48 280.099 58.36C280.659 59.2133 281.379 59.88 282.259 60.36C283.139 60.84 284.086 61.08 285.099 61.08C285.793 61.08 286.473 60.9733 287.139 60.76C287.806 60.52 288.366 60.1733 288.819 59.72C289.273 59.24 289.499 58.64 289.499 57.92C289.499 57.1733 289.273 56.56 288.819 56.08C288.393 55.5733 287.819 55.1333 287.099 54.76C286.379 54.3867 285.606 54.04 284.779 53.72C283.979 53.4 283.179 53.0667 282.379 52.72C281.579 52.3733 280.833 51.96 280.139 51.48C279.473 51 278.939 50.4133 278.539 49.72C278.139 49.0267 277.939 48.1733 277.939 47.16C277.939 46.6 278.046 45.9867 278.259 45.32C278.473 44.6533 278.833 44.0267 279.339 43.44C279.846 42.8267 280.539 42.3333 281.419 41.96C282.299 41.56 283.419 41.36 284.779 41.36C285.499 41.36 286.299 41.48 287.179 41.72C288.059 41.96 288.913 42.4133 289.739 43.08L289.659 41.56H291.339V48.56H290.059C290.006 47.6267 289.793 46.7333 289.419 45.88C289.046 45 288.499 44.28 287.779 43.72C287.059 43.1333 286.126 42.84 284.979 42.84C283.753 42.84 282.793 43.1467 282.099 43.76C281.406 44.3733 281.059 45.08 281.059 45.88C281.059 46.7067 281.313 47.4 281.819 47.96C282.353 48.4933 283.033 48.96 283.859 49.36C284.686 49.76 285.566 50.1467 286.499 50.52C287.513 50.9467 288.499 51.4133 289.459 51.92C290.419 52.4267 291.206 53.0667 291.819 53.84C292.433 54.5867 292.739 55.56 292.739 56.76C292.739 58.0933 292.393 59.2 291.699 60.08C291.033 60.96 290.166 61.6 289.099 62C288.059 62.4267 286.966 62.64 285.819 62.64Z" fill="white"/>
<defs>
<clipPath id="clip0_59_667">
<rect width="34.6624" height="34.6624" fill="white" transform="translate(16.1259 0.335167) rotate(27.725)"/>
</clipPath>
</defs>
</svg>
