<svg width="40" height="40" viewBox="0 0 69 69" fill="none" xmlns="http://www.w3.org/2000/svg">
<path d="M69 34.5C69 25.35 65.3652 16.5748 58.8952 10.1048C52.4252 3.63481 43.65 0 34.5 0C25.35 0 16.5748 3.63481 10.1048 10.1048C3.63481 16.5748 0 25.35 0 34.5C0 43.65 3.63481 52.4252 10.1048 58.8952C16.5748 65.3652 25.35 69 34.5 69C43.65 69 52.4252 65.3652 58.8952 58.8952C65.3652 52.4252 69 43.65 69 34.5ZM36.6562 49.5938C36.6562 50.1656 36.4291 50.7141 36.0247 51.1185C35.6203 51.5228 35.0719 51.75 34.5 51.75C33.9281 51.75 33.3797 51.5228 32.9753 51.1185C32.5709 50.7141 32.3438 50.1656 32.3438 49.5938V24.6114L23.0891 33.8704C22.6842 34.2753 22.1351 34.5027 21.5625 34.5027C20.9899 34.5027 20.4408 34.2753 20.0359 33.8704C19.631 33.4655 19.4035 32.9163 19.4035 32.3438C19.4035 31.7712 19.631 31.222 20.0359 30.8171L32.9734 17.8796C33.1737 17.6788 33.4116 17.5195 33.6736 17.4108C33.9355 17.3021 34.2164 17.2461 34.5 17.2461C34.7836 17.2461 35.0645 17.3021 35.3264 17.4108C35.5884 17.5195 35.8263 17.6788 36.0266 17.8796L48.9641 30.8171C49.369 31.222 49.5965 31.7712 49.5965 32.3438C49.5965 32.9163 49.369 33.4655 48.9641 33.8704C48.5592 34.2753 48.0101 34.5027 47.4375 34.5027C46.8649 34.5027 46.3158 34.2753 45.9109 33.8704L36.6562 24.6114V49.5938Z" fill="#B7B7A4"/>
</svg>